<svg xmlns="http://www.w3.org/2000/svg" width="274" height="199" fill="none" viewBox="0 0 274 199"><path stroke="#F2F2F2" stroke-linecap="round" stroke-width="59" d="M57.9111 49.2668L202.769 30" opacity=".5"/><path stroke="#F2F2F2" stroke-linecap="round" stroke-width="59" d="M39.2842 92.7371L244.24 64.886" opacity=".5"/><path stroke="#F2F2F2" stroke-linecap="round" stroke-width="59" d="M30 136.299L232.813 107.734" opacity=".5"/><path stroke="#F2F2F2" stroke-linecap="round" stroke-width="59" d="M86.4541 169.149L234.166 150.596" opacity=".5"/><path fill="#C0D5FF" d="M167.829 69.1349H96.458L117.605 51.9531H183.028L167.829 69.1349Z"/><path fill="#E8F4FF" d="M171.133 70.4566H92.4933V85.6559V143.149H171.133V70.4566Z"/><path fill="#E8F4FF" d="M190.298 48.6489L171.133 70.4566L186.993 94.9076L192.28 89.9514L206.818 73.7608L190.298 48.6489Z"/><path fill="#E8F4FF" d="M171.133 70.4566V143.149L192.28 118.037V89.9514L186.993 94.9076L171.133 70.4566Z"/><path fill="#E8F4FF" d="M92.4933 70.4566L81.9199 89.9514L92.4933 85.6559V70.4566Z"/><path stroke="#000" stroke-linejoin="round" stroke-width="3" d="M92.4933 70.4566H171.133M92.4933 70.4566L118.927 48.6489H190.298M92.4933 70.4566L81.9199 89.9514L92.4933 85.6559M92.4933 70.4566V85.6559M171.133 70.4566V143.149M171.133 70.4566L190.298 48.6489M171.133 70.4566L186.993 94.9076L192.28 89.9514M171.133 143.149H92.4933V85.6559M171.133 143.149L192.28 118.037V89.9514M190.298 48.6489L206.818 73.7608L192.28 89.9514"/><path stroke="#000" stroke-linecap="round" stroke-linejoin="round" stroke-width="3" d="M117.605 89.6208H147.343"/></svg>